<svg width="29" height="28" viewBox="0 0 29 28" fill="none" xmlns="http://www.w3.org/2000/svg">
<path fill-rule="evenodd" clip-rule="evenodd" d="M4.29166 11.1181C4.29166 7.96748 7.05566 5.54163 10.3 5.54163C11.9724 5.54163 13.444 6.32579 14.5 7.34043C15.556 6.32579 17.0276 5.54163 18.7 5.54163C21.9443 5.54163 24.7083 7.96748 24.7083 11.1181C24.7083 13.2762 23.788 15.1741 22.5129 16.7784C21.24 18.3799 19.5749 19.7391 17.9807 20.8436C17.3718 21.2654 16.7558 21.6546 16.192 21.9417C15.6626 22.2113 15.0539 22.4583 14.5 22.4583C13.9461 22.4583 13.3374 22.2113 12.808 21.9417C12.2442 21.6546 11.6282 21.2654 11.0193 20.8436C9.42505 19.7391 7.76001 18.3799 6.48711 16.7784C5.21202 15.1741 4.29166 13.2762 4.29166 11.1181ZM10.3 7.29163C7.8742 7.29163 6.04166 9.07558 6.04166 11.1181C6.04166 12.7555 6.73674 14.28 7.8571 15.6895C8.97965 17.1019 10.4901 18.348 12.0159 19.4051C12.5932 19.8051 13.137 20.1454 13.6022 20.3823C14.1017 20.6367 14.3911 20.7083 14.5 20.7083C14.6089 20.7083 14.8982 20.6367 15.3978 20.3823C15.863 20.1454 16.4068 19.8051 16.9841 19.4051C18.5099 18.348 20.0203 17.1019 21.1429 15.6895C22.2632 14.28 22.9583 12.7555 22.9583 11.1181C22.9583 9.07558 21.1258 7.29163 18.7 7.29163C17.3068 7.29163 16.0059 8.12395 15.1936 9.18037C15.028 9.39578 14.7717 9.52202 14.5 9.52202C14.2283 9.52202 13.972 9.39578 13.8063 9.18037C12.9941 8.12395 11.6932 7.29163 10.3 7.29163Z" fill="#99BFD4"/>
</svg>
