<svg width="29" height="28" viewBox="0 0 29 28" fill="none" xmlns="http://www.w3.org/2000/svg">
<path d="M14.4959 15.8405C14.0867 15.8405 13.7429 15.4967 13.7429 15.0956V6.85305L13.8084 5.63344L13.2927 6.23097L12.1468 7.45876C12.0158 7.6061 11.8193 7.67976 11.6311 7.67976C11.2627 7.67976 10.9599 7.40965 10.9599 7.02494C10.9599 6.82849 11.0417 6.68116 11.1809 6.54201L13.9311 3.89816C14.1194 3.70171 14.2995 3.63623 14.4959 3.63623C14.7006 3.63623 14.8806 3.70171 15.0689 3.89816L17.8192 6.54201C17.9583 6.68116 18.032 6.82849 18.032 7.02494C18.032 7.40965 17.7291 7.67976 17.3608 7.67976C17.1725 7.67976 16.9843 7.6061 16.8533 7.45876L15.6992 6.23097L15.1917 5.63344L15.2572 6.85305V15.0956C15.2572 15.4967 14.9134 15.8405 14.4959 15.8405ZM9.78939 22.3642C8.02137 22.3642 7.10461 21.4556 7.10461 19.7121V11.6496C7.10461 9.90616 8.02137 8.99759 9.78939 8.99759H12.024V10.6019H9.88761C9.12638 10.6019 8.70893 10.9948 8.70893 11.7888V19.573C8.70893 20.367 9.12638 20.7599 9.88761 20.7599H19.1124C19.8655 20.7599 20.2911 20.367 20.2911 19.573V11.7888C20.2911 10.9948 19.8655 10.6019 19.1124 10.6019H16.9924V8.99759H19.2107C20.9787 8.99759 21.8954 9.90616 21.8954 11.6496V19.7121C21.8954 21.4556 20.9787 22.3642 19.2107 22.3642H9.78939Z" fill="#99BFD4"/>
</svg>
