<svg width="15" height="20" viewBox="0 0 15 20" fill="none" xmlns="http://www.w3.org/2000/svg">
<path d="M7.49593 12.8405C7.08667 12.8405 6.74288 12.4967 6.74288 12.0956V3.85305L6.80837 2.63344L6.29269 3.23097L5.14675 4.45876C5.01579 4.6061 4.81934 4.67976 4.63108 4.67976C4.26274 4.67976 3.95989 4.40965 3.95989 4.02494C3.95989 3.82849 4.04174 3.68116 4.18089 3.54201L6.93115 0.89816C7.11941 0.701713 7.29948 0.63623 7.49593 0.63623C7.70056 0.63623 7.88064 0.701713 8.0689 0.89816L10.8192 3.54201C10.9583 3.68116 11.032 3.82849 11.032 4.02494C11.032 4.40965 10.7291 4.67976 10.3608 4.67976C10.1725 4.67976 9.98426 4.6061 9.85329 4.45876L8.69917 3.23097L8.19168 2.63344L8.25716 3.85305V12.0956C8.25716 12.4967 7.91338 12.8405 7.49593 12.8405ZM2.78939 19.3642C1.02137 19.3642 0.104614 18.4556 0.104614 16.7121V8.64963C0.104614 6.90616 1.02137 5.99759 2.78939 5.99759H5.02397V7.60191H2.88761C2.12638 7.60191 1.70893 7.99481 1.70893 8.78878V16.573C1.70893 17.367 2.12638 17.7599 2.88761 17.7599H12.1124C12.8655 17.7599 13.2911 17.367 13.2911 16.573V8.78878C13.2911 7.99481 12.8655 7.60191 12.1124 7.60191H9.99244V5.99759H12.2107C13.9787 5.99759 14.8954 6.90616 14.8954 8.64963V16.7121C14.8954 18.4556 13.9787 19.3642 12.2107 19.3642H2.78939Z" fill="#99BFD4"/>
</svg>
