<svg width="372" height="414" viewBox="0 0 372 414" fill="none" xmlns="http://www.w3.org/2000/svg">
<path d="M152.751 -63.3427L168.563 60.7891L248.566 -35.4305L212.521 84.4007L324.744 29.0399L243.076 123.851L368.114 118.921L254.944 172.318L371.176 218.672L246.072 221.421L333.401 311.044L217.994 262.671L261.321 380.066L175.567 288.935L167.399 413.803L126.125 295.671L67.875 406.422L78.2172 281.715L-20.0428 359.199L40.1281 249.48L-81.1522 280.299L18.4432 204.539L-104.887 183.365L16.912 154.664L-87.1431 85.1571L35.7993 108.478L-30.9886 2.65711L71.8393 73.967L53.8667 -49.8703L118.8 57.0985L152.751 -63.3427Z" fill="#B5A3F8"/>
</svg>
