<svg width="7" height="14" viewBox="0 0 7 14" fill="none" xmlns="http://www.w3.org/2000/svg">
<path d="M3.49999 13V5M3.49999 5L0.833323 7.66667M3.49999 5L6.16666 7.66667M4.16666 1.66667C4.16666 1.48986 4.09642 1.32029 3.97139 1.19526C3.84637 1.07024 3.6768 1 3.49999 1C3.32318 1 3.15361 1.07024 3.02859 1.19526C2.90356 1.32029 2.83332 1.48986 2.83332 1.66667C2.83332 1.84348 2.90356 2.01305 3.02859 2.13807C3.15361 2.2631 3.32318 2.33333 3.49999 2.33333C3.6768 2.33333 3.84637 2.2631 3.97139 2.13807C4.09642 2.01305 4.16666 1.84348 4.16666 1.66667Z" stroke="#99BFD4" stroke-width="1.33333" stroke-linecap="round" stroke-linejoin="round"/>
</svg>
