<svg width="7" height="14" viewBox="0 0 7 14" fill="none" xmlns="http://www.w3.org/2000/svg">
<path d="M3.50001 1V9M3.50001 9L6.16668 6.33333M3.50001 9L0.833344 6.33333M2.83334 12.3333C2.83334 12.5101 2.90358 12.6797 3.02861 12.8047C3.15363 12.9298 3.3232 13 3.50001 13C3.67682 13 3.84639 12.9298 3.97141 12.8047C4.09644 12.6797 4.16668 12.5101 4.16668 12.3333C4.16668 12.1565 4.09644 11.987 3.97141 11.8619C3.84639 11.7369 3.67682 11.6667 3.50001 11.6667C3.3232 11.6667 3.15363 11.7369 3.02861 11.8619C2.90358 11.987 2.83334 12.1565 2.83334 12.3333Z" stroke="#99BFD4" stroke-width="1.33333" stroke-linecap="round" stroke-linejoin="round"/>
</svg>
